<svg width="1024" height="1024" viewBox="0 0 1024 1024" fill="none" xmlns="http://www.w3.org/2000/svg">
<g clip-path="url(#clip0_0_1)">
<g filter="url(#filter0_d_0_1)">
<rect x="394.839" y="-1.52588e-05" width="606.917" height="809.223" rx="27.2253" transform="rotate(10 394.839 -1.52588e-05)" fill="url(#paint0_linear_0_1)"/>
</g>
<g filter="url(#filter1_d_0_1)">
<rect x="204.148" y="93.8698" width="606.917" height="809.223" rx="27.2253" fill="url(#paint1_linear_0_1)"/>
</g>
<g filter="url(#filter2_d_0_1)">
<rect x="32" y="226.773" width="606.917" height="809.223" rx="27.2253" transform="rotate(-10 32 226.773)" fill="url(#paint2_linear_0_1)"/>
</g>
<path fill-rule="evenodd" clip-rule="evenodd" d="M169.63 1003.24L36.4158 247.749C37.082 235.391 46.1676 224.668 58.8788 222.427L152.302 205.954L292.808 1002.8L197.258 1019.65C185.337 1020.8 174.209 1013.99 169.63 1003.24Z" fill="url(#paint3_linear_0_1)"/>
<path d="M422.751 704.495L545.398 682.869L543.438 671.752L486.608 676.596L474.774 678.683L420.79 693.378L422.751 704.495ZM461.481 697.666L506.309 689.762C498.087 649.428 490.815 608.187 483.607 567.304L480.445 549.373C473.11 507.774 465.838 466.533 459.832 426.178L415.004 434.082C423.289 474.775 430.497 515.657 437.769 556.898L440.931 574.829C448.266 616.429 455.475 657.311 461.481 697.666ZM336.204 521.93L353.776 518.832L357.625 444.199L339.524 461.073L539.991 425.725L517.569 415.997L546.712 484.812L564.285 481.713L549.127 410.432L325.708 449.827L336.204 521.93Z" fill="#262E2B"/>
</g>
<defs>
<filter id="filter0_d_0_1" x="220.514" y="-33.8059" width="811.273" height="975.376" filterUnits="userSpaceOnUse" color-interpolation-filters="sRGB">
<feFlood flood-opacity="0" result="BackgroundImageFix"/>
<feColorMatrix in="SourceAlpha" type="matrix" values="0 0 0 0 0 0 0 0 0 0 0 0 0 0 0 0 0 0 127 0" result="hardAlpha"/>
<feOffset dx="2.72253" dy="2.72253"/>
<feGaussianBlur stdDeviation="20.419"/>
<feComposite in2="hardAlpha" operator="out"/>
<feColorMatrix type="matrix" values="0 0 0 0 0 0 0 0 0 0 0 0 0 0 0 0 0 0 0.05 0"/>
<feBlend mode="normal" in2="BackgroundImageFix" result="effect1_dropShadow_0_1"/>
<feBlend mode="normal" in="SourceGraphic" in2="effect1_dropShadow_0_1" result="shape"/>
</filter>
<filter id="filter1_d_0_1" x="166.032" y="55.7544" width="688.593" height="890.898" filterUnits="userSpaceOnUse" color-interpolation-filters="sRGB">
<feFlood flood-opacity="0" result="BackgroundImageFix"/>
<feColorMatrix in="SourceAlpha" type="matrix" values="0 0 0 0 0 0 0 0 0 0 0 0 0 0 0 0 0 0 127 0" result="hardAlpha"/>
<feOffset dx="2.72253" dy="2.72253"/>
<feGaussianBlur stdDeviation="20.419"/>
<feComposite in2="hardAlpha" operator="out"/>
<feColorMatrix type="matrix" values="0 0 0 0 0 0 0 0 0 0 0 0 0 0 0 0 0 0 0.05 0"/>
<feBlend mode="normal" in2="BackgroundImageFix" result="effect1_dropShadow_0_1"/>
<feBlend mode="normal" in="SourceGraphic" in2="effect1_dropShadow_0_1" result="shape"/>
</filter>
<filter id="filter2_d_0_1" x="-1.80593" y="87.5774" width="811.273" height="975.376" filterUnits="userSpaceOnUse" color-interpolation-filters="sRGB">
<feFlood flood-opacity="0" result="BackgroundImageFix"/>
<feColorMatrix in="SourceAlpha" type="matrix" values="0 0 0 0 0 0 0 0 0 0 0 0 0 0 0 0 0 0 127 0" result="hardAlpha"/>
<feOffset dx="2.72253" dy="2.72253"/>
<feGaussianBlur stdDeviation="20.419"/>
<feComposite in2="hardAlpha" operator="out"/>
<feColorMatrix type="matrix" values="0 0 0 0 0 0 0 0 0 0 0 0 0 0 0 0 0 0 0.05 0"/>
<feBlend mode="normal" in2="BackgroundImageFix" result="effect1_dropShadow_0_1"/>
<feBlend mode="normal" in="SourceGraphic" in2="effect1_dropShadow_0_1" result="shape"/>
</filter>
<linearGradient id="paint0_linear_0_1" x1="402.292" y1="-1.31413" x2="1026.58" y2="826.996" gradientUnits="userSpaceOnUse">
<stop stop-color="#68CBC5"/>
<stop offset="1" stop-color="#519A96"/>
</linearGradient>
<linearGradient id="paint1_linear_0_1" x1="204.148" y1="93.8698" x2="818.348" y2="903.092" gradientUnits="userSpaceOnUse">
<stop stop-color="#66C1A0"/>
<stop offset="1" stop-color="#398066"/>
</linearGradient>
<linearGradient id="paint2_linear_0_1" x1="31.9958" y1="230.209" x2="638.369" y2="1041.33" gradientUnits="userSpaceOnUse">
<stop stop-color="white"/>
<stop offset="1" stop-color="#E9E9E9"/>
</linearGradient>
<linearGradient id="paint3_linear_0_1" x1="32.7629" y1="227.032" x2="769.385" y2="918.851" gradientUnits="userSpaceOnUse">
<stop stop-color="#99BAAE"/>
<stop offset="1" stop-color="#74847E"/>
</linearGradient>
<clipPath id="clip0_0_1">
<rect width="1024" height="1024" fill="white"/>
</clipPath>
</defs>
</svg>
